<svg xmlns="http://www.w3.org/2000/svg" viewBox="0 0 413.76 80.79"><defs><style>.cls-1,.cls-2{fill:#fff;}.cls-1{fill-rule:evenodd;}</style></defs><g id="Capa_2" data-name="Capa 2"><g id="Capa_1-2" data-name="Capa 1"><g id="Capa_2-2" data-name="Capa 2"><g id="Capa_1-2-2" data-name="Capa 1-2"><path class="cls-1" d="M22,80.78H.36c-.29,0-.34-.08-.36-.36a8.29,8.29,0,0,1,2.11-5.69,1.5,1.5,0,0,0,.39-1.16A7.15,7.15,0,0,1,4,69.12a19.28,19.28,0,0,1,4.79-4.4c.6-.43,1.21-.87,1.82-1.28a.24.24,0,0,0,.14-.31l0,0a5.26,5.26,0,0,1-.46-2,4.64,4.64,0,0,1,1-2.57,13.14,13.14,0,0,1,1.55-1.7,10.81,10.81,0,0,0,2.43-3.65,18.94,18.94,0,0,0,1.28-3.71,19.86,19.86,0,0,0,.5-3.15c.09-1.16.14-2.34.19-3.52l.12-3c0-1.31.1-2.62.15-3.93,0-.2,0-.27-.23-.29a21.15,21.15,0,0,1-3.14-.87,7.5,7.5,0,0,1-2.85-1.62,2.53,2.53,0,0,1-.74-1.82,8.14,8.14,0,0,1,0-1.21,2.66,2.66,0,0,1,1.14-1.64A8.73,8.73,0,0,1,14,27.24a.48.48,0,0,0,.32-.23,4.3,4.3,0,0,1,1.93-2c.44-.26.44-.28.1-.67s-1-.92-1.42-1.42a12,12,0,0,1-3.4-6.5,12.94,12.94,0,0,1-.31-2.84,12.5,12.5,0,0,1,1-4.74,16.86,16.86,0,0,1,2.46-4.09A12.6,12.6,0,0,1,19.2,1.38,16.51,16.51,0,0,1,23,.2,4.24,4.24,0,0,1,24.25.05l1.29,1.33c.23.25.44.47.64.73.68.88,1.42,1.75,2,2.67a19.64,19.64,0,0,1,2.57,4.88A41.55,41.55,0,0,1,32,13.93a13.05,13.05,0,0,1,.53,2.84,15.74,15.74,0,0,1-.15,3.36,14,14,0,0,1-1.93,5.07.45.45,0,0,0,0,.61,11.45,11.45,0,0,1,1.15,2.05,9.33,9.33,0,0,1,.68,4.84,9.84,9.84,0,0,1-.95,3.17,8.25,8.25,0,0,1-1.72,2.3.64.64,0,0,0-.21.5v1.55a3.74,3.74,0,0,0,.44,1.41,9,9,0,0,1,.51,4.72c-.24,1.59-.73,3.13-.88,4.72a4.3,4.3,0,0,0-.09,1.24c.24,1.15.51,2.3.77,3.45a13.31,13.31,0,0,1,.43,2.51,9.09,9.09,0,0,1-.36,2.64,19.33,19.33,0,0,1-1.93,4.76.53.53,0,0,0,0,.46A3.75,3.75,0,0,1,28,68.55a25.91,25.91,0,0,1-1.65,3.07,2.27,2.27,0,0,0-.53,1.62,5.86,5.86,0,0,1,0,2.36,7,7,0,0,1-1.88,3.58A23.41,23.41,0,0,0,22,80.78Z"/><path class="cls-1" d="M21.59,80.78c.61-.56,1.24-1.09,1.82-1.67a7.12,7.12,0,0,0,1.86-3.58,5.87,5.87,0,0,0,.07-2.36,2.37,2.37,0,0,1,.53-1.62,25.91,25.91,0,0,0,1.65-3.07,3.75,3.75,0,0,0,.27-2.42.53.53,0,0,1,0-.46,19.59,19.59,0,0,0,2-4.76,8.32,8.32,0,0,0,.32-2.57,13.43,13.43,0,0,0-.44-2.44c-.27-1.15-.54-2.3-.78-3.45A4,4,0,0,1,29,51.14c.15-1.59.64-3.13.88-4.72a9,9,0,0,0-.51-4.72,3.81,3.81,0,0,1-.3-1.49V38.66a.63.63,0,0,1,.2-.5A8.34,8.34,0,0,0,31,35.85a9.52,9.52,0,0,0,.91-3.18,9.33,9.33,0,0,0-.68-4.84,9.58,9.58,0,0,0-1.16-2,.48.48,0,0,1,0-.62A14.05,14.05,0,0,0,32,20.1a15.74,15.74,0,0,0,.14-3.36,12.48,12.48,0,0,0-.53-2.84c-.35-1.42-.69-2.85-1.18-4.27A21.35,21.35,0,0,0,27.85,4.8c-.66-.93-1.36-1.79-2-2.68-.2-.25-.41-.48-.64-.72L23.83.05a2,2,0,0,1,.9,0,15,15,0,0,1,8.63,2.32,11.94,11.94,0,0,1,3.83,3.82,14.42,14.42,0,0,1,2.23,5.22,11.51,11.51,0,0,1,.1,3.84,13.91,13.91,0,0,1-2.13,5.9,14,14,0,0,1-2.58,2.74c-.75.7-.75.73.09,1.27A3.8,3.8,0,0,1,36.46,27a.59.59,0,0,0,.34.3,7.63,7.63,0,0,1,2.61,1.42,2.48,2.48,0,0,1,.85,2v1a2.93,2.93,0,0,1-1.42,2.07,12,12,0,0,1-4,1.62l-1.42.31c-.17,0-.21.11-.18.27a13.82,13.82,0,0,1,0,1.82,27.9,27.9,0,0,0,.11,3c.1,1.63.13,3.27.23,4.92A19.77,19.77,0,0,0,34.27,50a18.22,18.22,0,0,0,2.65,5.64,17.57,17.57,0,0,0,1.8,2,6.16,6.16,0,0,1,1.71,2.73,4.25,4.25,0,0,1-.14,2.47c-.2.57-.2.57.3.93,1.32,1,2.68,1.86,3.92,2.93a11.26,11.26,0,0,1,3.64,5.14A6.82,6.82,0,0,1,48.38,74a.77.77,0,0,0,.18.5,9.19,9.19,0,0,1,2.24,4.42,8.6,8.6,0,0,1,.08,1.68c0,.11,0,.17-.15.17a.43.43,0,0,0-.16,0h-29Z"/><path class="cls-2" d="M71.05,44.43a8.56,8.56,0,0,1-2.85,6.16,10.22,10.22,0,0,1-6.88,2.26A9.14,9.14,0,0,1,54,49.73a12.89,12.89,0,0,1-2.67-8.63V39.68a14.52,14.52,0,0,1,1.25-6.26,9,9,0,0,1,3.53-4.08,9.83,9.83,0,0,1,5.31-1.42,9.94,9.94,0,0,1,6.8,2.25,9.16,9.16,0,0,1,2.85,6.31H66.11a5,5,0,0,0-1.31-3.41A4.91,4.91,0,0,0,61.38,32a4.25,4.25,0,0,0-3.74,1.8,10,10,0,0,0-1.28,5.56V41.2a10.7,10.7,0,0,0,1.19,5.69,4.15,4.15,0,0,0,3.76,1.8,4.84,4.84,0,0,0,3.45-1,4.73,4.73,0,0,0,1.31-3.27Z"/><path class="cls-2" d="M94.11,52.58h-5V42.11H79.35V52.58h-5V28.25h5v9.82h9.76V28.25h5Z"/><path class="cls-2" d="M113.07,42h-9.6v6.5h11.26v4.08H98.48V28.25H114.7v4H103.47v5.77h9.6Z"/><path class="cls-2" d="M130.24,46.15a2.54,2.54,0,0,0-1-2.18,13.21,13.21,0,0,0-3.6-1.6,24.52,24.52,0,0,1-4.12-1.67q-4.12-2.22-4.13-6a5.88,5.88,0,0,1,1.11-3.44,7.07,7.07,0,0,1,3.19-2.42,12.15,12.15,0,0,1,4.65-.87,11,11,0,0,1,4.63.95,7.37,7.37,0,0,1,3.16,2.66,6.85,6.85,0,0,1,1.12,3.9h-5a3.26,3.26,0,0,0-1-2.59,4.21,4.21,0,0,0-3-.92,4.63,4.63,0,0,0-2.84.77,2.39,2.39,0,0,0-1,2,2.31,2.31,0,0,0,1.26,1.92,13.31,13.31,0,0,0,3.51,1.51,15.15,15.15,0,0,1,6.22,3.17,6.39,6.39,0,0,1,2,4.74,5.87,5.87,0,0,1-2.39,5,10.55,10.55,0,0,1-6.45,1.79,12.39,12.39,0,0,1-5.09-1A8.19,8.19,0,0,1,117.9,49a7.17,7.17,0,0,1-1.21-4.14h5q0,4,4.79,4a4.71,4.71,0,0,0,2.85-.73A2.34,2.34,0,0,0,130.24,46.15Z"/><path class="cls-2" d="M151.23,46.15a2.55,2.55,0,0,0-1-2.18,13.14,13.14,0,0,0-3.59-1.6,24.08,24.08,0,0,1-4.11-1.67q-4.14-2.22-4.14-6a5.74,5.74,0,0,1,1.11-3.44,7.24,7.24,0,0,1,3.18-2.42,12.15,12.15,0,0,1,4.65-.87,11.05,11.05,0,0,1,4.64.95,7.25,7.25,0,0,1,3.16,2.66,7,7,0,0,1,1.12,3.9h-5a3.28,3.28,0,0,0-1.05-2.59,4.32,4.32,0,0,0-2.95-.92,4.63,4.63,0,0,0-2.84.77,2.45,2.45,0,0,0-1,2,2.32,2.32,0,0,0,1.19,2,13.24,13.24,0,0,0,3.5,1.51,15,15,0,0,1,6.22,3.17,6.29,6.29,0,0,1,1.94,4.73,5.79,5.79,0,0,1-2.37,5,10.45,10.45,0,0,1-6.41,1.79,12.28,12.28,0,0,1-5.11-1A8.19,8.19,0,0,1,138.85,49a7.26,7.26,0,0,1-1.21-4.14h5q0,4,4.81,4a4.59,4.59,0,0,0,2.84-.72A2.38,2.38,0,0,0,151.23,46.15Z"/><path class="cls-2" d="M186.23,44.94a8.79,8.79,0,0,1-2.84,5.87,9.1,9.1,0,0,1-6.19,2,8.61,8.61,0,0,1-4.78-1.35,9.06,9.06,0,0,1-3.21-3.83A13.41,13.41,0,0,1,168.07,42V38.85a13.85,13.85,0,0,1,1.12-5.68,8.82,8.82,0,0,1,3.26-3.86,8.94,8.94,0,0,1,4.89-1.42A8.67,8.67,0,0,1,183.5,30a8.79,8.79,0,0,1,2.73,5.83H184.1q-.78-6.19-6.73-6.19a6.35,6.35,0,0,0-5.25,2.47,10.75,10.75,0,0,0-2,6.83v3A10.8,10.8,0,0,0,172,48.61a6.13,6.13,0,0,0,5.22,2.54,6.75,6.75,0,0,0,4.85-1.55,7.39,7.39,0,0,0,2-4.62Z"/><path class="cls-2" d="M209.12,52.58h-2.07V40.87H193.18V52.58h-2V28.25h2V39.14h13.87V28.25h2.07Z"/><path class="cls-2" d="M228.69,45.69h-11l-2.5,6.89H213l9.19-24.26h1.94l9.19,24.26h-2.13ZM218.3,44H228L223.2,30.75Z"/><path class="cls-2" d="M239.61,28.25l9,21.48,9-21.41h2.73V52.58h-2V41.94l.17-10.84-9,21.48h-1.58l-8.95-21.33L239,41.94V52.58H237V28.25Z"/><path class="cls-2" d="M268.48,42.62v10h-2.05V28.25h8.26a8.64,8.64,0,0,1,6,1.93,6.71,6.71,0,0,1,2.26,5.33,6.69,6.69,0,0,1-2.11,5.28,9,9,0,0,1-6.1,1.85Zm0-1.73h6.21a6.61,6.61,0,0,0,4.55-1.42,5.12,5.12,0,0,0,1.57-4,5.31,5.31,0,0,0-1.55-4A6.23,6.23,0,0,0,274.82,30h-6.34Z"/><path class="cls-2" d="M289.94,52.58h-2.05V28.25h2.05Z"/><path class="cls-2" d="M314.45,41.7a13.92,13.92,0,0,1-1.15,5.87,9.18,9.18,0,0,1-15.14,2.23,12.11,12.11,0,0,1-2.62-8.2V39.1a14,14,0,0,1,1.18-5.88,9.05,9.05,0,0,1,16.52-.14,13.63,13.63,0,0,1,1.21,5.69Zm-2-2.65a10.74,10.74,0,0,0-2-6.85,7.1,7.1,0,0,0-10-.81,6.28,6.28,0,0,0-.82.81,10.84,10.84,0,0,0-2,6.95V41.7a10.73,10.73,0,0,0,2,6.84,7.15,7.15,0,0,0,10.87,0,11.13,11.13,0,0,0,2-6.94Z"/><path class="cls-2" d="M337.69,52.58h-2.05L321.69,31.82V52.58h-2.08V28.25h2.08l14,20.77V28.25h2Z"/><path class="cls-2" d="M357.58,46.55a3.9,3.9,0,0,0-1.42-3.2A14.66,14.66,0,0,0,351,41.12a18,18,0,0,1-5.48-2.31A5.59,5.59,0,0,1,344,31a5.77,5.77,0,0,1,1.32-1.38,9.46,9.46,0,0,1,5.86-1.75,9.82,9.82,0,0,1,4.27.94,7.12,7.12,0,0,1,3,2.61,6.83,6.83,0,0,1,1,3.71h-2.08a5,5,0,0,0-1.69-4,6.61,6.61,0,0,0-4.51-1.52,7.2,7.2,0,0,0-4.43,1.25,3.9,3.9,0,0,0-1.67,3.2,3.73,3.73,0,0,0,1.43,3,14,14,0,0,0,4.74,2.05A21.72,21.72,0,0,1,356.2,41a7,7,0,0,1,2.55,2.29,5.9,5.9,0,0,1,.84,3.14,5.48,5.48,0,0,1-2.23,4.69,9.81,9.81,0,0,1-6.05,1.74A11.91,11.91,0,0,1,346.6,52a7.27,7.27,0,0,1-3.24-2.56,6.7,6.7,0,0,1-1.11-3.79h2.05a4.83,4.83,0,0,0,1.92,4,8,8,0,0,0,5.09,1.42,7.56,7.56,0,0,0,4.55-1.25A3.89,3.89,0,0,0,357.58,46.55Z"/><path class="cls-2" d="M382,52.58H380V40.87H366.11V52.58h-2V28.25h2V39.14H380V28.25H382Z"/><path class="cls-2" d="M390.72,52.58h-2.05V28.25h2.05Z"/><path class="cls-2" d="M399.35,42.62v10H397.3V28.25h8.26a8.68,8.68,0,0,1,6,1.93,6.67,6.67,0,0,1,2.22,5.33,6.68,6.68,0,0,1-2.1,5.28,9,9,0,0,1-6.12,1.85Zm0-1.73h6.21a6.61,6.61,0,0,0,4.55-1.42,5.12,5.12,0,0,0,1.57-4,5.27,5.27,0,0,0-1.57-4A6.16,6.16,0,0,0,405.69,30h-6.34Z"/><path class="cls-2" d="M143.36,56.3v8a4.14,4.14,0,0,1-1.26,3.16,4.78,4.78,0,0,1-3.39,1.15,4.92,4.92,0,0,1-3.39-1.12,4,4,0,0,1-1.26-3.09V56.3h2.5v8a2.28,2.28,0,0,0,.57,1.73,2.17,2.17,0,0,0,1.58.54c1.4,0,2.11-.74,2.13-2.21V56.3Z"/><path class="cls-2" d="M149.58,61.76l2.52-5.46h2.73l-4,7.72v4.41H148.3V64l-4-7.72h2.75Z"/></g></g></g></g></svg>