<svg xmlns="http://www.w3.org/2000/svg" viewBox="0 0 489.98 95.38"><defs><style>.cls-1{fill:#fa0;}</style></defs><g id="Capa_2" data-name="Capa 2"><g id="Capa_1-2" data-name="Capa 1"><path class="cls-1" d="M31.13,22.19C19,21.17,9.33,15,0,7.35c3.56,1.21,6.72,2.4,10,3.37A73.2,73.2,0,0,0,40.73,13.4a5.1,5.1,0,0,0,2.34-1C49,7.8,55.82,6.47,63.13,7.27a14.44,14.44,0,0,1,7.36,3.33A12.28,12.28,0,0,0,81.9,12.94c2.77-.79,5.41-2,8.11-3.06,2.55-1,5-2.09,7.67-2.79,3.21-.85,5.71.16,7.91,2.95,2.69,3.4,3.44,7.23,3.9,11.26.25,2.18.36,4.37.54,6.55.14,1.75-.29,2.09-1.81,1.36a10.19,10.19,0,0,0-5.66-.84,66.37,66.37,0,0,0-13.15,2.72,28.45,28.45,0,0,0-11.35,6.72c-3.76,3.58-7.66,7-11.47,10.53-3.65,3.39-7.68,3.86-12,1.58-2.13-1.13-4.16-2.46-6.25-3.68-2.91-1.7-5.93-3.08-9.42-3-3.24.11-6,1.67-8.66,3.2A34.05,34.05,0,0,0,17.91,58a72.61,72.61,0,0,0-5.34,10.47A69.61,69.61,0,0,0,7.62,84.31c-.56,3.56-.86,7.17-1.31,11.07-.68-2-1.39-3.67-1.84-5.44A82.06,82.06,0,0,1,2,79.31a77.29,77.29,0,0,1-.31-11.69,73.5,73.5,0,0,1,1-8.47,33,33,0,0,1,2.54-9c1-2.13,1.9-4.3,3.06-6.33,2-3.45,4.82-6.22,7.38-9.23A51.37,51.37,0,0,1,30.3,23.08c.26-.14.52-.3.78-.46ZM51.85,21,56,25.72c4.82-2.27,9.52-4.47,15-4.63C67,16.4,56.73,18.35,51.85,21Z"/><path class="cls-1" d="M44.76,8.78a26.17,26.17,0,0,1-11.33,3.31,3.94,3.94,0,0,1-2.1-.66c-1.63-1-3.2-2.16-4.75-3.31-3.36-2.49-6.68-5-10-7.52a.83.83,0,0,1-.35-.6C18.48.77,20.8,1.45,23,2.34c3.39,1.35,6.72,2.84,10.08,4.26A24.81,24.81,0,0,0,44.28,8.74,2.59,2.59,0,0,1,44.76,8.78Z"/><path class="cls-1" d="M172.72,36.94l7.6-17.9h10.73L177.77,45.47V60.28H167.68V45.47L154.43,19h10.68Z"/><path class="cls-1" d="M257,42.78H241.4v9.85h18.47v7.65H231.46V19h28.47v7.68H241.4v8.69H257Z"/><path class="cls-1" d="M336.22,60.28h-9.88V43.06H311.7V60.28h-9.94V19h9.94V35.41h14.64V19h9.88Z"/><path class="cls-1" d="M356.81,36.94,364.4,19h10.74L361.85,45.47V60.28H351.77V45.47L338.52,19h10.67Z"/><path class="cls-1" d="M476.89,52.58H463.27l-2.38,7.7H450.27L465.39,19h9.35L490,60.28H479.3ZM465.65,44.9h8.86l-4.44-14.3Z"/><path class="cls-1" d="M288.56,43.2A12.28,12.28,0,0,0,294,38.62a13.38,13.38,0,0,0,1.74-7.13,11,11,0,0,0-4.13-9.19Q287.48,19,280.15,19H263.92v7.65h16.23a5.61,5.61,0,0,1,4.25,1.52,5.84,5.84,0,0,1,1.44,4.19,5.79,5.79,0,0,1-1.43,4.16,5.64,5.64,0,0,1-4.26,1.49H263.92V60.28h9.94V45.69h5.38l7.28,14.59h10.65v-.43Z"/><path class="cls-1" d="M224.27,42.41a8.63,8.63,0,0,0-5-3.17,8.63,8.63,0,0,0,4.34-3.34,9.87,9.87,0,0,0,1.47-5.47A9.71,9.71,0,0,0,221,22Q216.82,19,208.86,19H194.05v7.65h14.81a8.05,8.05,0,0,1,4.85,1.15,4.45,4.45,0,0,1,1.5,3.76A4.24,4.24,0,0,1,213.82,35q-1.4,1.17-4.65,1.2h-.47v0H194.05v24h16.74q7.53-.06,11.37-3.1T226,48.07A9.24,9.24,0,0,0,224.27,42.41Zm-9.63,9a6.19,6.19,0,0,1-4.13,1.23H204V42.75h7c3.42,0,5.12,1.75,5.12,5.18A4.32,4.32,0,0,1,214.64,51.4Z"/><path class="cls-1" d="M128.88,33.38A12.1,12.1,0,0,1,130.33,29a5.93,5.93,0,0,1,5.44-2.77q3.64,0,5.43,1.64c1.19,1.1,1.83,2.9,1.9,5.41H153a15.57,15.57,0,0,0-5.18-10.89q-4.56-3.94-12.06-3.95a17,17,0,0,0-9.18,2.48,16,16,0,0,0-6.08,7,22,22,0,0,0-1.66,5.43Z"/><path class="cls-1" d="M141.12,51.44a7.63,7.63,0,0,1-5.24,1.62c-2.7,0-4.6-1-5.71-2.83s-1.65-5-1.65-9.44V39.66H118.41v.94q0,9.66,4.67,14.95t12.8,5.3A20.23,20.23,0,0,0,144.64,59a14,14,0,0,0,6-5.11,15.08,15.08,0,0,0,2.32-7.6H143Q142.94,49.83,141.12,51.44Z"/><path class="cls-1" d="M408.06,28.52a17.39,17.39,0,0,0-6.81-7A19.59,19.59,0,0,0,391.42,19H378.14v7.68h13.28a7.84,7.84,0,0,1,6.68,3q2.29,3,2.3,9v1.78q0,6-2.3,9.05a7.72,7.72,0,0,1-6.57,3h-3.45V38.08h-9.94v22.2H391.7a19.09,19.09,0,0,0,9.7-2.56,17.42,17.42,0,0,0,6.74-7,21.16,21.16,0,0,0,2.4-10.15v-1.9A21.14,21.14,0,0,0,408.06,28.52Z"/><path class="cls-1" d="M440.27,43.2a12.31,12.31,0,0,0,5.46-4.58,13.38,13.38,0,0,0,1.74-7.13,11,11,0,0,0-4.14-9.19Q439.21,19,431.86,19H415.63v7.65h16.23a5.6,5.6,0,0,1,4.25,1.52,5.85,5.85,0,0,1,1.45,4.19,5.79,5.79,0,0,1-1.43,4.16,5.68,5.68,0,0,1-4.27,1.49H415.63V60.28h9.95V45.69H431l7.28,14.59h10.64v-.43Z"/><path class="cls-1" d="M120,85.45h-1.55V67.08H120Z"/><path class="cls-1" d="M143.79,85.45h-1.56L131.67,69.73V85.45h-1.56V67.08h1.56l10.58,15.74V67.08h1.54Z"/><path class="cls-1" d="M167.3,85.45h-1.55L155.19,69.73V85.45h-1.57V67.08h1.57l10.57,15.74V67.08h1.54Z"/><path class="cls-1" d="M190.71,77.27a10.68,10.68,0,0,1-.87,4.45,6.69,6.69,0,0,1-2.51,3,6.85,6.85,0,0,1-3.76,1,6.53,6.53,0,0,1-5.2-2.31,9.18,9.18,0,0,1-2-6.21V75.3a10.58,10.58,0,0,1,.89-4.45,6.61,6.61,0,0,1,6.27-4,6.88,6.88,0,0,1,3.74,1,6.74,6.74,0,0,1,2.5,2.89,10.33,10.33,0,0,1,.92,4.33Zm-1.55-2a8.15,8.15,0,0,0-1.5-5.2,5.4,5.4,0,0,0-8.2,0,8.21,8.21,0,0,0-1.52,5.27v1.92a8.15,8.15,0,0,0,1.52,5.18,5,5,0,0,0,4.11,1.91,4.91,4.91,0,0,0,4.11-1.89,8.3,8.3,0,0,0,1.48-5.25Z"/><path class="cls-1" d="M205.05,83.18l.1.39.12-.39,5.78-16.1h1.7l-6.84,18.37h-1.49l-6.84-18.37h1.69Z"/><path class="cls-1" d="M229.59,80.29h-8.34l-1.89,5.16h-1.63l7-18.37h1.48l7,18.37h-1.62ZM221.73,79h7.37l-3.69-10Z"/><path class="cls-1" d="M251.82,68.4h-6.3v17H244v-17h-6.29V67.08h14.14Z"/><path class="cls-1" d="M261.84,85.45h-1.55V67.08h1.55Z"/><path class="cls-1" d="M285.67,85.45h-1.55L273.56,69.73V85.45H272V67.08h1.57l10.57,15.74V67.08h1.54Z"/><path class="cls-1" d="M308.77,83.27a5.18,5.18,0,0,1-2.53,1.79,11,11,0,0,1-3.86.65,7.16,7.16,0,0,1-3.83-1,6.82,6.82,0,0,1-2.6-2.93A9.83,9.83,0,0,1,295,77.4V75.08a8.87,8.87,0,0,1,1.93-6,6.54,6.54,0,0,1,5.19-2.22,6.86,6.86,0,0,1,4.57,1.45,5.92,5.92,0,0,1,2.05,4H307.2a4.72,4.72,0,0,0-1.64-3.07,5.29,5.29,0,0,0-3.42-1A5,5,0,0,0,298.07,70a8,8,0,0,0-1.5,5.17v2.17a9,9,0,0,0,.71,3.71,5.67,5.67,0,0,0,2,2.49,5.41,5.41,0,0,0,3.06.88,8.57,8.57,0,0,0,3.45-.63,3.71,3.71,0,0,0,1.39-1V78.05h-4.94V76.74h6.49Z"/><path class="cls-1" d="M343.37,77.27a10.67,10.67,0,0,1-.88,4.45,6.69,6.69,0,0,1-2.51,3,6.82,6.82,0,0,1-3.75,1A6.51,6.51,0,0,1,331,83.4a9.18,9.18,0,0,1-2-6.21V75.3a10.43,10.43,0,0,1,.89-4.45,7,7,0,0,1,10-3,6.76,6.76,0,0,1,2.51,2.89,10.48,10.48,0,0,1,.92,4.33Zm-1.56-2a8.09,8.09,0,0,0-1.5-5.2,5.39,5.39,0,0,0-8.19,0,8.15,8.15,0,0,0-1.52,5.27v1.92a8.14,8.14,0,0,0,1.51,5.18,5,5,0,0,0,4.12,1.91,4.92,4.92,0,0,0,4.11-1.89,8.36,8.36,0,0,0,1.47-5.25Z"/><path class="cls-1" d="M365.1,67.08V79.62a6.32,6.32,0,0,1-.82,3.23A5.37,5.37,0,0,1,362,85a7.43,7.43,0,0,1-3.37.74A6.63,6.63,0,0,1,354,84.12a5.76,5.76,0,0,1-1.81-4.38V67.08h1.54V79.51a4.77,4.77,0,0,0,1.32,3.6,5.69,5.69,0,0,0,7.19,0,4.78,4.78,0,0,0,1.32-3.59V67.08Z"/><path class="cls-1" d="M381.46,77.79h-5.34v7.66h-1.56V67.08h6a6.8,6.8,0,0,1,4.59,1.43,5.44,5.44,0,0,1,.62,7.09A5.34,5.34,0,0,1,383,77.47l4.6,7.82v.16H385.9Zm-5.34-1.31h4.76A4.4,4.4,0,0,0,384,75.37a4.19,4.19,0,0,0,0-5.9,5.09,5.09,0,0,0-3.47-1.07h-4.38Z"/><path class="cls-1" d="M409.18,84.14h9.08v1.31H407.62V67.08h1.56Z"/><path class="cls-1" d="M428.29,85.45h-1.55V67.08h1.55Z"/><path class="cls-1" d="M448.56,76.86H440v8.59h-1.55V67.08h11.38V68.4H440v7.15h8.56Z"/><path class="cls-1" d="M468.29,76.65H459.7v7.49h9.88v1.31H458.15V67.08h11.37V68.4H459.7v6.94h8.59Z"/><path class="cls-1" d="M488.41,80.94a3,3,0,0,0-1.07-2.42,11.33,11.33,0,0,0-3.92-1.69,13.78,13.78,0,0,1-4.17-1.75,4.23,4.23,0,0,1-.13-6.93,7.14,7.14,0,0,1,4.44-1.32,7.34,7.34,0,0,1,3.27.71,5.32,5.32,0,0,1,2.24,2,5.14,5.14,0,0,1,.79,2.81H488.3a3.84,3.84,0,0,0-1.29-3,5,5,0,0,0-3.45-1.15,5.49,5.49,0,0,0-3.36.94A3,3,0,0,0,479,71.54a2.77,2.77,0,0,0,1.12,2.29,10.42,10.42,0,0,0,3.6,1.56,17.07,17.07,0,0,1,3.75,1.4,5.24,5.24,0,0,1,1.91,1.74,4.33,4.33,0,0,1,.65,2.38,4.13,4.13,0,0,1-1.74,3.48,7.36,7.36,0,0,1-4.57,1.32,8.85,8.85,0,0,1-3.57-.7,5.45,5.45,0,0,1-2.46-1.94,5,5,0,0,1-.83-2.86h1.55a3.66,3.66,0,0,0,1.45,3.06,6.11,6.11,0,0,0,3.86,1.12,5.7,5.7,0,0,0,3.44-.94A3,3,0,0,0,488.41,80.94Z"/></g></g></svg>