<svg xmlns="http://www.w3.org/2000/svg" viewBox="0 0 161.74 161.74"><defs><style>.cls-1{fill:#333;}.cls-2{fill:#fa0;}</style></defs><g id="Capa_2" data-name="Capa 2"><g id="Capa_1-2" data-name="Capa 1"><rect class="cls-1" width="161.74" height="161.74"/><path class="cls-2" d="M55.65,54c-12.83-1.07-23-7.55-32.86-15.66,3.75,1.28,7.09,2.54,10.5,3.56a77.32,77.32,0,0,0,32.49,2.83,5.41,5.41,0,0,0,2.47-1.1c6.29-4.82,13.46-6.21,21.17-5.38a15.3,15.3,0,0,1,7.77,3.52,12.94,12.94,0,0,0,12,2.47c2.93-.83,5.71-2.15,8.57-3.22A81.55,81.55,0,0,1,125.89,38c3.38-.9,6,.17,8.35,3.11,2.84,3.59,3.63,7.63,4.12,11.88.26,2.3.38,4.62.56,6.92.15,1.84-.3,2.21-1.91,1.43a10.83,10.83,0,0,0-6-.89,70.75,70.75,0,0,0-13.88,2.88,30,30,0,0,0-12,7.09c-4,3.78-8.09,7.4-12.1,11.12-3.85,3.57-8.11,4.07-12.69,1.66-2.26-1.19-4.4-2.59-6.6-3.88-3.07-1.8-6.26-3.25-9.94-3.13-3.42.11-6.29,1.76-9.14,3.37a35.87,35.87,0,0,0-13,12.18,76.09,76.09,0,0,0-5.64,11,74.19,74.19,0,0,0-5.23,16.71c-.58,3.76-.9,7.56-1.38,11.69-.72-2.08-1.46-3.88-1.94-5.74a86.37,86.37,0,0,1-2.57-11.23,83.27,83.27,0,0,1-.33-12.34A79.6,79.6,0,0,1,25.66,93a34.41,34.41,0,0,1,2.69-9.47c1-2.25,2-4.54,3.22-6.68,2.08-3.65,5.09-6.57,7.79-9.74A54.13,54.13,0,0,1,54.77,54.9l.82-.49Zm21.87-1.24,4.32,5c5.09-2.4,10-4.72,15.84-4.89C93.46,47.84,82.67,49.9,77.52,52.71Z"/><path class="cls-2" d="M70,39.8a27.52,27.52,0,0,1-12,3.49,4.17,4.17,0,0,1-2.21-.69c-1.72-1.1-3.38-2.29-5-3.5-3.54-2.62-7.05-5.28-10.57-7.93a1,1,0,0,1-.38-.64c2.41.82,4.85,1.54,7.21,2.47,3.58,1.42,7.09,3,10.64,4.5a26.11,26.11,0,0,0,11.79,2.26A2.74,2.74,0,0,1,70,39.8Z"/></g></g></svg>