<svg xmlns="http://www.w3.org/2000/svg" viewBox="0 0 371.57 188.15"><defs><style>.cls-1{fill:#222;}</style></defs><g id="Capa_2" data-name="Capa 2"><g id="Capa_1-2" data-name="Capa 1"><path class="cls-1" d="M173.89,38.77C161.41,28.84,155.37,15.14,150.79,0c3,3.91,5.57,7.5,8.38,10.89a95.71,95.71,0,0,0,31.56,25.29,6.69,6.69,0,0,0,3.29.57c9.81-.64,18.16,2.85,25.53,9a18.83,18.83,0,0,1,5.59,9,16,16,0,0,0,10.72,10.82c3.59,1.17,7.37,1.73,11.06,2.58,3.46.81,7,1.39,10.36,2.53,4.11,1.4,6.11,4.32,6.48,9,.45,5.65-1.51,10.36-3.94,15.08-1.31,2.55-2.78,5-4.18,7.53-1.11,2-1.82,2.07-2.95.16a13.41,13.41,0,0,0-5.55-5,87.79,87.79,0,0,0-16.29-6.59,37.12,37.12,0,0,0-17.24-.93C206.93,91,200.19,91.92,193.49,93c-6.43,1-11.16-1.38-14.23-7-1.51-2.77-2.75-5.69-4.13-8.54-1.93-4-4.22-7.66-8.1-10.07-3.6-2.24-7.7-2.52-11.74-2.81a44.44,44.44,0,0,0-21.8,3.6,95.3,95.3,0,0,0-13.42,7.51c-6,4-11.95,8.27-16.89,13.64C100,92.77,97,96.47,93.7,100.39c.7-2.63,1.17-5,2-7.25,1.57-4.5,2.95-9.12,5.09-13.35a102.58,102.58,0,0,1,8.15-12.94,98.68,98.68,0,0,1,7.23-8.5,43,43,0,0,1,9.28-7.9c2.61-1.62,5.19-3.31,7.93-4.68,4.65-2.32,9.77-3.27,14.74-4.68a67.12,67.12,0,0,1,24.26-2c.4,0,.79,0,1.19.07ZM197.3,52.54c.35,2.72.69,5.43,1,8.1,6.89,1,13.61,2,19.69,5.86C217.09,58.5,204.54,53.19,197.3,52.54Z"/><path class="cls-1" d="M198.47,34.07a34.15,34.15,0,0,1-14.74-4.63,5.08,5.08,0,0,1-1.8-2.23c-1-2.31-1.92-4.69-2.77-7.07-1.84-5.14-3.63-10.3-5.44-15.45a1.09,1.09,0,0,1,.05-.91c1.92,2.49,3.94,4.91,5.73,7.5,2.71,3.93,5.24,8,7.87,12A32.37,32.37,0,0,0,198,33.68,4.66,4.66,0,0,1,198.47,34.07Z"/><path class="cls-1" d="M54.32,139.39l7.59-17.9H72.64L59.36,147.91v14.81H49.28V147.91L36,121.49H46.7Z"/><path class="cls-1" d="M138.63,145.22H123v9.86h18.46v7.64h-28.4V121.49h28.46v7.67H123v8.7h15.63Z"/><path class="cls-1" d="M217.82,162.72h-9.89V145.51H193.29v17.21h-9.94V121.49h9.94v16.37h14.64V121.49h9.89Z"/><path class="cls-1" d="M238.41,139.39l7.59-17.9h10.73l-13.28,26.42v14.81H233.37V147.91l-13.26-26.42h10.68Z"/><path class="cls-1" d="M358.49,155H344.87l-2.38,7.7H331.87L347,121.49h9.35l15.23,41.23H360.9Zm-11.25-7.67h8.87L351.66,133Z"/><path class="cls-1" d="M170.15,145.65a12.35,12.35,0,0,0,5.45-4.58,13.34,13.34,0,0,0,1.75-7.13,11,11,0,0,0-4.14-9.2q-4.12-3.26-11.47-3.25H145.51v7.65h16.23a5.6,5.6,0,0,1,4.25,1.51,5.86,5.86,0,0,1,1.45,4.19A5.73,5.73,0,0,1,166,139a5.61,5.61,0,0,1-4.26,1.49H145.51v22.23h9.94V148.14h5.39l7.27,14.58h10.65v-.42Z"/><path class="cls-1" d="M105.86,144.85a8.73,8.73,0,0,0-5-3.17,8.61,8.61,0,0,0,4.33-3.34,9.82,9.82,0,0,0,1.47-5.47,9.68,9.68,0,0,0-4.15-8.46q-4.14-2.93-12.1-2.92H75.65v7.65H90.46c2.23,0,3.84.38,4.84,1.15a4.43,4.43,0,0,1,1.5,3.76,4.24,4.24,0,0,1-1.39,3.44c-.92.77-2.47,1.17-4.64,1.19h-.48v0H75.65v24H92.38q7.55,0,11.37-3.1t3.84-9.1A9.19,9.19,0,0,0,105.86,144.85Zm-9.63,9a6.19,6.19,0,0,1-4.13,1.23H85.59v-9.89h7q5.13,0,5.13,5.19A4.31,4.31,0,0,1,96.23,153.85Z"/><path class="cls-1" d="M10.47,135.83a12,12,0,0,1,1.45-4.37,6,6,0,0,1,5.44-2.78q3.66,0,5.44,1.65t1.9,5.4h9.91a15.61,15.61,0,0,0-5.18-10.88q-4.56-4-12.07-4a17,17,0,0,0-9.17,2.48,16,16,0,0,0-6.08,7,21.92,21.92,0,0,0-1.67,5.43Z"/><path class="cls-1" d="M22.71,153.89a7.66,7.66,0,0,1-5.24,1.61q-4,0-5.7-2.83t-1.66-9.43v-1.13H0V143q0,9.66,4.67,15t12.8,5.3a20.28,20.28,0,0,0,8.77-1.81,14,14,0,0,0,6-5.11,15,15,0,0,0,2.32-7.61H24.64Q24.52,152.27,22.71,153.89Z"/><path class="cls-1" d="M289.65,131a17.36,17.36,0,0,0-6.81-7,19.52,19.52,0,0,0-9.82-2.48H259.73v7.67H273a7.87,7.87,0,0,1,6.68,3c1.53,2,2.29,5,2.29,9V143c0,4-.76,7-2.29,9.05a7.74,7.74,0,0,1-6.57,3.05h-3.46V140.52h-9.94v22.2H273.3a19,19,0,0,0,9.7-2.56,17.52,17.52,0,0,0,6.74-7A21.31,21.31,0,0,0,292.13,143v-1.89A21.07,21.07,0,0,0,289.65,131Z"/><path class="cls-1" d="M321.87,145.65a12.41,12.41,0,0,0,5.45-4.58,13.43,13.43,0,0,0,1.74-7.13q0-5.94-4.13-9.2t-11.47-3.25H297.23v7.65h16.23a5.61,5.61,0,0,1,4.25,1.51,5.86,5.86,0,0,1,1.44,4.19,5.77,5.77,0,0,1-1.43,4.16,5.61,5.61,0,0,1-4.26,1.49H297.23v22.23h9.94V148.14h5.38l7.28,14.58h10.65v-.42Z"/><path class="cls-1" d="M1.55,187.9H0V169.53H1.55Z"/><path class="cls-1" d="M25.38,187.9H23.83L13.27,172.18V187.9H11.7V169.53h1.57l10.57,15.73V169.53h1.54Z"/><path class="cls-1" d="M48.89,187.9H47.34L36.78,172.18V187.9H35.22V169.53h1.56l10.58,15.73V169.53h1.53Z"/><path class="cls-1" d="M72.31,179.71a10.64,10.64,0,0,1-.88,4.45,6.7,6.7,0,0,1-2.5,3,6.87,6.87,0,0,1-3.76,1,6.53,6.53,0,0,1-5.2-2.3,9.23,9.23,0,0,1-2-6.22v-1.89a10.49,10.49,0,0,1,.89-4.45,6.6,6.6,0,0,1,6.26-4,6.88,6.88,0,0,1,3.74,1,6.7,6.7,0,0,1,2.51,2.89,10.44,10.44,0,0,1,.92,4.32Zm-1.56-2a8,8,0,0,0-1.5-5.2,5.4,5.4,0,0,0-8.19,0,8.23,8.23,0,0,0-1.52,5.27v1.92a8.11,8.11,0,0,0,1.51,5.18,5.42,5.42,0,0,0,8.23,0,8.37,8.37,0,0,0,1.47-5.26Z"/><path class="cls-1" d="M86.65,185.63l.1.39.11-.39,5.78-16.1h1.7L87.51,187.9H86l-6.84-18.37h1.69Z"/><path class="cls-1" d="M111.18,182.74h-8.34L101,187.9H99.32l7-18.37h1.47l7,18.37h-1.61Zm-7.86-1.31h7.37l-3.68-10Z"/><path class="cls-1" d="M133.41,170.84h-6.3V187.9h-1.55V170.84h-6.28v-1.31h14.13Z"/><path class="cls-1" d="M143.44,187.9h-1.56V169.53h1.56Z"/><path class="cls-1" d="M167.26,187.9h-1.55l-10.56-15.72V187.9h-1.56V169.53h1.56l10.58,15.73V169.53h1.53Z"/><path class="cls-1" d="M190.36,185.72a5.24,5.24,0,0,1-2.53,1.79,10.87,10.87,0,0,1-3.85.64,7.17,7.17,0,0,1-3.84-1,6.94,6.94,0,0,1-2.6-2.93,10,10,0,0,1-.93-4.34v-2.32a8.87,8.87,0,0,1,1.93-6,6.53,6.53,0,0,1,5.19-2.21,6.88,6.88,0,0,1,4.56,1.44,5.93,5.93,0,0,1,2.06,4H188.8a4.8,4.8,0,0,0-1.65-3.07,5.33,5.33,0,0,0-3.41-1,5,5,0,0,0-4.08,1.83,7.93,7.93,0,0,0-1.5,5.16v2.18a9.15,9.15,0,0,0,.71,3.7,5.64,5.64,0,0,0,2,2.49,5.41,5.41,0,0,0,3.06.89,8.52,8.52,0,0,0,3.44-.63,3.66,3.66,0,0,0,1.39-1v-4.75h-4.93v-1.31h6.48Z"/><path class="cls-1" d="M225,179.71a10.64,10.64,0,0,1-.87,4.45,6.72,6.72,0,0,1-2.51,3,6.84,6.84,0,0,1-3.76,1,6.55,6.55,0,0,1-5.2-2.3,9.23,9.23,0,0,1-2-6.22v-1.89a10.65,10.65,0,0,1,.89-4.45,6.62,6.62,0,0,1,6.26-4,6.89,6.89,0,0,1,3.75,1,6.68,6.68,0,0,1,2.5,2.89,10.28,10.28,0,0,1,.92,4.32Zm-1.55-2a8.11,8.11,0,0,0-1.5-5.2,5.41,5.41,0,0,0-8.2,0,8.23,8.23,0,0,0-1.52,5.27v1.92a8.11,8.11,0,0,0,1.52,5.18,5.4,5.4,0,0,0,8.22,0,8.31,8.31,0,0,0,1.48-5.26Z"/><path class="cls-1" d="M246.7,169.53v12.54a6.45,6.45,0,0,1-.82,3.23,5.35,5.35,0,0,1-2.28,2.11,7.47,7.47,0,0,1-3.38.74,6.7,6.7,0,0,1-4.65-1.58,5.87,5.87,0,0,1-1.81-4.39V169.53h1.54V182a4.79,4.79,0,0,0,1.33,3.6,5,5,0,0,0,3.59,1.28,4.9,4.9,0,0,0,3.59-1.29,4.77,4.77,0,0,0,1.32-3.58V169.53Z"/><path class="cls-1" d="M263.06,180.24h-5.34v7.66h-1.57V169.53h6a6.84,6.84,0,0,1,4.6,1.42,5.44,5.44,0,0,1,.61,7.1,5.24,5.24,0,0,1-2.77,1.86l4.59,7.82v.17H267.5Zm-5.34-1.31h4.76a4.41,4.41,0,0,0,3.14-1.11,4.23,4.23,0,0,0-.05-5.91,5.16,5.16,0,0,0-3.47-1.07h-4.38Z"/><path class="cls-1" d="M290.78,186.59h9.07v1.31H289.21V169.53h1.57Z"/><path class="cls-1" d="M309.89,187.9h-1.55V169.53h1.55Z"/><path class="cls-1" d="M330.16,179.31h-8.57v8.59H320V169.53h11.38v1.31h-9.83V178h8.57Z"/><path class="cls-1" d="M349.89,179.09H341.3v7.5h9.88v1.31H339.74V169.53h11.37v1.31H341.3v6.94h8.59Z"/><path class="cls-1" d="M370,183.38a3,3,0,0,0-1.07-2.41,11.38,11.38,0,0,0-3.93-1.7,13.62,13.62,0,0,1-4.16-1.74,4.24,4.24,0,0,1-.13-6.94,7.15,7.15,0,0,1,4.43-1.31,7.34,7.34,0,0,1,3.27.7,5.32,5.32,0,0,1,2.24,2,5.17,5.17,0,0,1,.8,2.81H369.9a3.87,3.87,0,0,0-1.29-3,5,5,0,0,0-3.46-1.14,5.47,5.47,0,0,0-3.36.94,3,3,0,0,0-1.25,2.46,2.76,2.76,0,0,0,1.13,2.28,10.34,10.34,0,0,0,3.59,1.57,16.58,16.58,0,0,1,3.75,1.4,5.34,5.34,0,0,1,1.92,1.73,4.33,4.33,0,0,1,.64,2.39,4.18,4.18,0,0,1-1.73,3.48,7.43,7.43,0,0,1-4.58,1.31,9,9,0,0,1-3.56-.69,5.46,5.46,0,0,1-2.46-2,5,5,0,0,1-.84-2.86H360a3.69,3.69,0,0,0,1.45,3.07,6.21,6.21,0,0,0,3.86,1.12,5.75,5.75,0,0,0,3.45-1A3,3,0,0,0,370,183.38Z"/></g></g></svg>