<svg xmlns="http://www.w3.org/2000/svg" viewBox="0 0 375.37 375.37"><defs><style>.cls-1{fill:#333;}.cls-2{fill:#fa0;}</style></defs><g id="Capa_2" data-name="Capa 2"><g id="Capa_1-2" data-name="Capa 1"><rect class="cls-1" width="375.37" height="375.37"/><path class="cls-2" d="M180.87,157.82c-17.48-13.91-25.93-33.07-32.33-54.27,4.18,5.47,7.78,10.5,11.72,15.25a134.15,134.15,0,0,0,44.17,35.4A9.52,9.52,0,0,0,209,155c13.73-.89,25.42,4,35.74,12.63,3.93,3.28,6.25,7.73,7.83,12.56a22.47,22.47,0,0,0,15,15.16c5,1.62,10.31,2.41,15.47,3.61,4.85,1.12,9.82,1.94,14.51,3.54,5.76,2,8.54,6,9.06,12.54.64,7.91-2.11,14.51-5.51,21.11-1.84,3.57-3.89,7-5.84,10.54-1.56,2.79-2.56,2.89-4.14.21a18.81,18.81,0,0,0-7.76-7,121.85,121.85,0,0,0-22.81-9.22,52.08,52.08,0,0,0-24.12-1.31c-9.36,1.64-18.79,2.88-28.18,4.39-9,1.44-15.62-1.93-19.91-9.83-2.11-3.89-3.85-8-5.78-11.95-2.71-5.56-5.91-10.73-11.34-14.11-5-3.12-10.77-3.52-16.43-3.93a62.39,62.39,0,0,0-30.52,5,132.4,132.4,0,0,0-18.78,10.52C97.09,215.09,88.8,221,81.89,228.54c-4.47,4.87-8.6,10.05-13.26,15.53,1-3.68,1.62-7,2.72-10.15,2.2-6.29,4.13-12.76,7.12-18.68a145,145,0,0,1,11.41-18.12A137.29,137.29,0,0,1,100,185.23a60.16,60.16,0,0,1,13-11.07c3.65-2.26,7.26-4.62,11.09-6.54,6.51-3.25,13.67-4.58,20.63-6.56,11.18-3.17,22.49-3.7,34-2.73.55,0,1.1.06,1.65.1Zm32.76,19.27q.74,5.73,1.45,11.34c9.65,1.43,19.06,2.87,27.57,8.2C241.33,185.43,223.77,178,213.63,177.09Z"/><path class="cls-2" d="M215.27,151.24a47.59,47.59,0,0,1-20.63-6.48,7,7,0,0,1-2.52-3.12c-1.43-3.24-2.69-6.56-3.88-9.89-2.58-7.2-5.09-14.42-7.62-21.63a1.61,1.61,0,0,1,.07-1.28c2.69,3.49,5.52,6.88,8,10.5,3.79,5.5,7.34,11.17,11,16.75a45.27,45.27,0,0,0,14.85,14.61A7.12,7.12,0,0,1,215.27,151.24Z"/></g></g></svg>