<svg xmlns="http://www.w3.org/2000/svg" viewBox="0 0 161.74 161.74"><defs><style>.cls-1{fill:#fff;}.cls-2{fill:#222;}</style></defs><g id="Capa_2" data-name="Capa 2"><g id="Capa_1-2" data-name="Capa 1"><rect class="cls-1" width="161.74" height="161.74"/><path class="cls-2" d="M56.23,57.54C43.4,56.47,33.22,50,23.37,41.88c3.75,1.28,7.09,2.54,10.5,3.55a77.17,77.17,0,0,0,32.49,2.84,5.51,5.51,0,0,0,2.47-1.1C75.12,42.35,82.29,41,90,41.79a15.3,15.3,0,0,1,7.77,3.52,12.94,12.94,0,0,0,12,2.46c2.92-.82,5.71-2.14,8.57-3.22a84.09,84.09,0,0,1,8.09-2.94c3.38-.9,6,.16,8.35,3.11,2.84,3.59,3.63,7.63,4.11,11.88.26,2.3.39,4.61.57,6.92.15,1.84-.3,2.21-1.91,1.43a10.84,10.84,0,0,0-6-.89,70,70,0,0,0-13.88,2.88,29.81,29.81,0,0,0-12,7.09c-4,3.78-8.09,7.39-12.1,11.12C89.8,88.72,85.55,89.22,81,86.81c-2.26-1.19-4.4-2.59-6.6-3.88-3.07-1.8-6.26-3.26-9.94-3.13-3.42.11-6.29,1.76-9.14,3.37a35.87,35.87,0,0,0-13,12.18,75.11,75.11,0,0,0-5.64,11.05,73.53,73.53,0,0,0-5.23,16.71c-.58,3.76-.9,7.56-1.38,11.69-.72-2.08-1.46-3.88-1.94-5.74a86.37,86.37,0,0,1-2.57-11.23,83.27,83.27,0,0,1-.33-12.34,79.5,79.5,0,0,1,1-8.94,34.44,34.44,0,0,1,2.69-9.46c1-2.25,2-4.54,3.22-6.68,2.08-3.65,5.09-6.58,7.79-9.75A54,54,0,0,1,55.35,58.49l.82-.49ZM78.1,56.3l4.32,5c5.09-2.4,10-4.72,15.84-4.89C94,51.43,83.25,53.49,78.1,56.3Z"/><path class="cls-2" d="M70.61,43.38a27.4,27.4,0,0,1-12,3.5,4.17,4.17,0,0,1-2.21-.69c-1.72-1.1-3.38-2.29-5-3.5-3.54-2.63-7.05-5.29-10.57-7.93a.92.92,0,0,1-.38-.64c2.41.82,4.85,1.54,7.21,2.47,3.57,1.42,7.09,3,10.64,4.5a26.1,26.1,0,0,0,11.79,2.25A4,4,0,0,1,70.61,43.38Z"/></g></g></svg>