<svg xmlns="http://www.w3.org/2000/svg" viewBox="0 0 242.42 210.1"><defs><style>.cls-1{fill:#fa0;}</style></defs><g id="Capa_2" data-name="Capa 2"><g id="Capa_1-2" data-name="Capa 1"><path class="cls-1" d="M68.58,48.88C41.81,46.64,20.56,33.11,0,16.18c7.84,2.68,14.8,5.3,21.91,7.43,22.18,6.62,44.79,8.93,67.81,5.91a11.31,11.31,0,0,0,5.14-2.28C108,17.18,123,14.26,139.05,16c6.12.67,11.41,3.57,16.22,7.35,7.51,5.91,16,7.71,25.12,5.14,6.11-1.72,11.93-4.47,17.89-6.72,5.6-2.11,11.11-4.61,16.88-6.14,7.06-1.88,12.58.34,17.43,6.49,5.92,7.49,7.58,15.92,8.59,24.79.54,4.8.8,9.63,1.19,14.45.31,3.83-.63,4.6-4,3a22.61,22.61,0,0,0-12.46-1.86,147,147,0,0,0-29,6,62.5,62.5,0,0,0-25,14.8c-8.27,7.89-16.87,15.43-25.25,23.2-8,7.45-16.92,8.49-26.48,3.46-4.71-2.48-9.18-5.4-13.77-8.09-6.42-3.76-13.07-6.8-20.75-6.54-7.13.23-13.13,3.67-19.07,7C55.55,108.64,46.18,117,39.46,127.78a159.86,159.86,0,0,0-11.77,23.06c-4.68,11.26-9,22.74-10.9,34.87-1.23,7.85-1.9,15.79-2.9,24.39-1.48-4.34-3-8.08-4.05-12-2-7.76-4.39-15.52-5.35-23.43a172.77,172.77,0,0,1-.69-25.75C4,142.71,5.1,136.49,6,130.29a72,72,0,0,1,5.61-19.75c2.14-4.7,4.18-9.47,6.73-14C22.66,89,28.94,82.88,34.58,76.26c9.07-10.64,20-18.72,32.15-25.42.58-.32,1.15-.67,1.72-1Zm45.63-2.6,9,10.37c10.61-5,21-9.85,33.05-10.2C147.49,36.13,125,40.42,114.21,46.28Z"/><path class="cls-1" d="M98.6,19.33a57.48,57.48,0,0,1-25,7.29A8.58,8.58,0,0,1,69,25.18c-3.59-2.28-7.06-4.77-10.48-7.3-7.39-5.48-14.71-11-22.06-16.56A1.86,1.86,0,0,1,35.7,0c5,1.7,10.11,3.2,15,5.15,7.46,3,14.8,6.27,22.2,9.4a54.64,54.64,0,0,0,24.61,4.7A7.68,7.68,0,0,1,98.6,19.33Z"/></g></g></svg>