<svg xmlns="http://www.w3.org/2000/svg" viewBox="0 0 238.12 145.28"><defs><style>.cls-1{fill:#fff;}</style></defs><g id="Capa_2" data-name="Capa 2"><g id="Capa_1-2" data-name="Capa 1"><path class="cls-1" d="M112.24,54.27C94.77,40.36,86.32,21.19,79.91,0,84.1,5.47,87.7,10.5,91.64,15.25A134.08,134.08,0,0,0,135.8,50.64a9.41,9.41,0,0,0,4.61.79c13.74-.88,25.43,4,35.75,12.63,3.92,3.29,6.24,7.74,7.82,12.57a22.47,22.47,0,0,0,15,15.16c5,1.62,10.31,2.41,15.47,3.6,4.86,1.13,9.82,1.94,14.51,3.55,5.76,2,8.55,6,9.07,12.54.63,7.9-2.11,14.5-5.51,21.11-1.84,3.56-3.9,7-5.85,10.53-1.55,2.8-2.56,2.89-4.14.22a18.78,18.78,0,0,0-7.76-7A122.94,122.94,0,0,0,192,127.08a52,52,0,0,0-24.12-1.3c-9.36,1.64-18.79,2.88-28.17,4.39-9,1.44-15.62-1.94-19.91-9.83-2.11-3.89-3.86-8-5.79-12-2.7-5.57-5.9-10.74-11.33-14.11-5-3.13-10.78-3.52-16.44-3.93a62.3,62.3,0,0,0-30.52,5A133,133,0,0,0,36.9,105.91c-8.43,5.62-16.72,11.57-23.64,19.08C8.79,129.85,4.66,135,0,140.52c1-3.68,1.63-7,2.73-10.15,2.2-6.3,4.13-12.76,7.12-18.68a143.05,143.05,0,0,1,11.4-18.12A135.92,135.92,0,0,1,31.38,81.68a59.87,59.87,0,0,1,13-11.07C48,68.35,51.63,66,55.47,64.07c6.5-3.26,13.67-4.59,20.62-6.56,11.19-3.17,22.49-3.7,34-2.73.55,0,1.1.06,1.66.09ZM145,73.54c.49,3.81,1,7.6,1.46,11.34,9.65,1.43,19,2.87,27.57,8.2C172.71,81.88,155.14,74.44,145,73.54Z"/><path class="cls-1" d="M146.64,47.69A47.63,47.63,0,0,1,126,41.21a7.16,7.16,0,0,1-2.52-3.13c-1.43-3.23-2.68-6.55-3.88-9.89C117,21,114.53,13.78,112,6.56a1.55,1.55,0,0,1,.07-1.27c2.68,3.49,5.52,6.88,8,10.5,3.8,5.5,7.35,11.16,11,16.74A45.43,45.43,0,0,0,146,47.15,5.75,5.75,0,0,1,146.64,47.69Z"/></g></g></svg>