<svg xmlns="http://www.w3.org/2000/svg" viewBox="0 0 161.74 161.74"><defs><style>.cls-1{fill:#333;}.cls-2{fill:#fff;}</style></defs><g id="Capa_2" data-name="Capa 2"><g id="Capa_1-2" data-name="Capa 1"><rect class="cls-1" width="161.74" height="161.74"/><path class="cls-2" d="M55.65,59.32c-12.83-1.08-23-7.56-32.86-15.67,3.75,1.28,7.09,2.54,10.5,3.56A77.32,77.32,0,0,0,65.78,50,5.5,5.5,0,0,0,68.25,49c6.29-4.82,13.46-6.22,21.17-5.39a15.3,15.3,0,0,1,7.77,3.52,12.94,12.94,0,0,0,12,2.47c2.93-.83,5.71-2.14,8.57-3.22,2.68-1,5.32-2.21,8.09-2.95,3.38-.9,6,.17,8.35,3.11,2.84,3.59,3.63,7.63,4.12,11.89.26,2.29.38,4.61.56,6.92.15,1.83-.3,2.2-1.91,1.42a10.83,10.83,0,0,0-6-.89,70.75,70.75,0,0,0-13.88,2.88,30.11,30.11,0,0,0-12,7.09c-4,3.78-8.09,7.4-12.1,11.12C89.23,90.49,85,91,80.39,88.58,78.13,87.39,76,86,73.79,84.7c-3.07-1.8-6.26-3.25-9.94-3.13-3.42.11-6.29,1.76-9.14,3.37a36,36,0,0,0-13,12.18,76.09,76.09,0,0,0-5.64,11,74.19,74.19,0,0,0-5.23,16.71c-.58,3.76-.9,7.57-1.38,11.69-.72-2.08-1.46-3.87-1.94-5.74a86.37,86.37,0,0,1-2.57-11.23,83.27,83.27,0,0,1-.33-12.34,79.6,79.6,0,0,1,1.05-8.93,34.25,34.25,0,0,1,2.69-9.46c1-2.26,2-4.55,3.22-6.69,2.08-3.64,5.09-6.57,7.79-9.74A54.3,54.3,0,0,1,54.77,60.26c.28-.15.55-.32.82-.48Zm21.87-1.25,4.32,5c5.09-2.4,10-4.72,15.84-4.89C93.46,53.21,82.67,55.26,77.52,58.07Z"/><path class="cls-2" d="M70,45.16a27.52,27.52,0,0,1-12,3.49A4.08,4.08,0,0,1,55.86,48c-1.72-1.09-3.38-2.28-5-3.5-3.54-2.62-7.05-5.28-10.57-7.93a1,1,0,0,1-.38-.63c2.41.81,4.85,1.53,7.21,2.46,3.58,1.43,7.09,3,10.64,4.51a26.1,26.1,0,0,0,11.79,2.25A2.74,2.74,0,0,1,70,45.16Z"/></g></g></svg>